#!OML:ASF F:\VICON\USERDATA\INSTALL\rory3\rory3.ASF
:FULLY-SPECIFIED
:DEGREES
2358
root 0.172487 18.5726 -1.21722 -4.95006 -5.21041 1.25002
lowerback 4.58658 -0.489459 -3.60367
upperback 1.16815 -0.830212 -0.561627
thorax -1.32698 -0.4074 1.49048
lowerneck -12.0663 -3.59944 -9.64341
upperneck 15.7832 -4.46824 7.85682
head 7.21295 -2.05081 3.71633
rclavicle -7.53984e-015 -1.98785e-015
rhumerus 4.00026 -17.7456 -70.4153
rradius 13.2244
rwrist 33.7734
rhand -37.6173 8.18728
rfingers 7.12502
rthumb -10.6702 -21.5218
lclavicle -7.53984e-015 -1.98785e-015
lhumerus 2.42297 7.25167 76.8384
lradius 12.5478
lwrist -14.372
lhand -20.4512 21.1328
lfingers 7.12502
lthumb 5.90422 51.0305
rfemur -8.1857 22.718 16.2405
rtibia 28.6538
rfoot -16.1235 -7.69634
rtoes -2.05995
lfemur -1.62103 -2.52749 -18.2631
ltibia 26.5745
lfoot -18.9288 18.8468
ltoes -4.79812
2359
root 0.171735 18.5692 -1.23067 -5.09651 -5.25859 1.10886
lowerback 4.52011 -0.478179 -3.53754
upperback 1.17543 -0.807904 -0.49287
thorax -1.28345 -0.397217 1.52202
lowerneck -12.1701 -3.52823 -9.67737
upperneck 16.0141 -4.37821 7.92322
head 7.29963 -2.0028 3.75559
rclavicle -7.04133e-015 -8.34896e-015
rhumerus 6.21962 -16.0014 -70.8482
rradius 13.6669
rwrist 33.3265
rhand -37.0677 8.28842
rfingers 7.12502
rthumb -10.14 -21.4472
lclavicle -7.04133e-015 -8.34896e-015
lhumerus 4.3412 3.13167 76.48
lradius 14.2087
lwrist -12.4197
lhand -19.6941 21.647
lfingers 7.12502
lthumb 6.63512 51.5231
rfemur -8.06141 22.74 16.4634
rtibia 28.649
rfoot -16.0804 -7.68515
rtoes -2.03266
lfemur -1.52721 -2.46799 -18.084
ltibia 26.6381
lfoot -18.8985 18.8007
ltoes -4.75646
2360
root 0.172476 18.5696 -1.24221 -5.17142 -5.26593 1.11583
lowerback 4.40387 -0.48155 -3.61682
upperback 1.14349 -0.811068 -0.458418
thorax -1.24949 -0.398819 1.60082
lowerneck -12.4239 -3.43313 -9.80902
upperneck 16.4429 -4.26296 8.15339
head 7.4804 -1.93206 3.87084
rclavicle -1.82199e-014 -1.11319e-014
rhumerus 8.27393 -13.5183 -70.8817
rradius 14.3099
rwrist 31.7026
rhand -36.4646 9.21206
rfingers 7.12502
rthumb -9.55809 -20.5511
lclavicle -1.82199e-014 -1.11319e-014
lhumerus 6.22515 -0.33435 75.8849
lradius 15.7656
lwrist -10.1766
lhand -20.5126 20.9965
lfingers 7.12502
lthumb 5.84497 50.8959
rfemur -8.02296 22.7645 16.4775
rtibia 28.6404
rfoot -16.057 -7.67609
rtoes -1.84707
lfemur -1.51424 -2.4742 -18.0888
ltibia 26.6821
lfoot -18.9043 18.8182
ltoes -4.75953
2361
root 0.173846 18.5717 -1.25149 -5.20787 -5.32738 1.18991
lowerback 4.32384 -0.463443 -3.75055
upperback 1.01106 -0.792418 -0.450894
thorax -1.33992 -0.385892 1.68248
lowerneck -12.2682 -3.31689 -9.86928
upperneck 16.6106 -4.14161 8.2964
head 7.49921 -1.86956 3.94572
rclavicle -4.41364e-015 -1.98785e-016
rhumerus 10.1588 -11.7028 -70.7805
rradius 15.026
rwrist 30.8215
rhand -35.8882 10.2255
rfingers 7.12502
rthumb -9.00197 -19.5624
lclavicle -4.41364e-015 -1.98785e-016
lhumerus 8.10128 -3.25255 75.0236
lradius 17.185
lwrist -8.04278
lhand -21.5729 20.5259
lfingers 7.12502
lthumb 4.82117 50.4511
rfemur -8.03584 22.7871 16.3843
rtibia 28.6261
rfoot -16.0305 -7.61907
rtoes -1.74889
lfemur -1.51847 -2.42503 -18.1708
ltibia 26.7081
lfoot -18.9295 18.8264
ltoes -4.73851
2362
root 0.175105 18.5719 -1.26018 -5.26028 -5.50097 1.18632
lowerback 4.2501 -0.39497 -3.76609
upperback 0.903181 -0.701069 -0.442155
thorax -1.41449 -0.33748 1.69527
lowerneck -11.9887 -3.2296 -9.7942
upperneck 16.6158 -4.06326 8.29789
head 7.44144 -1.83359 3.94391
rclavicle -1.57102e-014 3.37934e-015
rhumerus 11.9829 -10.2511 -70.5457
rradius 15.7496
rwrist 30.1328
rhand -35.4726 9.93049
rfingers 7.12502
rthumb -8.60088 -19.8743
lclavicle -1.57102e-014 3.37934e-015
lhumerus 10.1211 -5.72119 73.9245
lradius 18.5274
lwrist -6.59698
lhand -22.0367 20.4539
lfingers 7.12502
lthumb 4.37333 50.3887
rfemur -8.03234 22.8311 16.3872
rtibia 28.5992
rfoot -15.925 -7.5466
rtoes -1.65213
lfemur -1.4656 -2.26865 -18.1622
ltibia 26.7193
lfoot -18.9375 18.8786
ltoes -4.83848
2363
root 0.177592 18.5719 -1.26842 -5.26418 -5.61015 1.06375
lowerback 4.1135 -0.362343 -3.61975
upperback 0.873297 -0.645135 -0.403335
thorax -1.37321 -0.310368 1.64909
lowerneck -12.1223 -3.20025 -9.67208
upperneck 16.7986 -4.02312 8.18514
head 7.51612 -1.81443 3.89166
rclavicle 2.38542e-015 1.88845e-014
rhumerus 13.9955 -8.75147 -70.1304
rradius 16.3429
rwrist 29.1689
rhand -35.3192 8.78659
rfingers 7.12502
rthumb -8.45286 -21.0242
lclavicle 2.38542e-015 1.88845e-014
lhumerus 12.3303 -7.71014 72.6569
lradius 19.7659
lwrist -5.40709
lhand -22.6061 20.3748
lfingers 7.12502
lthumb 3.82344 50.3203
rfemur -8.02284 22.8403 16.5121
rtibia 28.5423
rfoot -15.8382 -7.51261
rtoes -1.44178
lfemur -1.47427 -2.17977 -18.0221
ltibia 26.748
lfoot -18.9622 18.8663
ltoes -4.83806
2364
root 0.179931 18.5726 -1.27279 -5.28194 -5.63731 0.942817
lowerback 3.96639 -0.357679 -3.46371
upperback 0.864805 -0.625658 -0.370801
thorax -1.30207 -0.302219 1.59274
lowerneck -12.3442 -3.18214 -9.545
upperneck 17.0319 -3.9951 8.07687
head 7.62454 -1.7987 3.83903
rclavicle -8.41108e-015 8.54774e-015
rhumerus 16.0572 -7.34841 -69.5355
rradius 16.9035
rwrist 28.0758
rhand -35.5123 8.06017
rfingers 7.12502
rthumb -8.63916 -21.7431
lclavicle -8.41108e-015 8.54774e-015
lhumerus 14.6039 -9.1527 71.2875
lradius 20.8633
lwrist -4.46186
lhand -22.9521 20.265
lfingers 7.12502
lthumb 3.48936 50.2162
rfemur -7.95433 22.8002 16.6512
rtibia 28.4587
rfoot -15.766 -7.51043
rtoes -1.675
lfemur -1.48711 -2.20072 -17.8987
ltibia 26.8084
lfoot -18.9509 18.9053
ltoes -4.80928
2365
root 0.180921 18.574 -1.27436 -5.29703 -5.69163 0.849563
lowerback 3.78727 -0.313213 -3.36793
upperback 0.813088 -0.555595 -0.329299
thorax -1.25922 -0.267558 1.57701
lowerneck -12.244 -3.17202 -9.47398
upperneck 17.1178 -3.99471 8.00116
head 7.63174 -1.80328 3.8035
rclavicle 7.68427e-015 -1.47101e-014
rhumerus 17.9546 -6.28357 -68.7767
rradius 17.4895
rwrist 27.1265
rhand -35.8108 8.10815
rfingers 7.12502
rthumb -8.92722 -21.683
lclavicle 7.68427e-015 -1.47101e-014
lhumerus 16.7951 -10.0818 70.0191
lradius 21.7712
lwrist -3.92154
lhand -23.4276 19.7095
lfingers 7.12502
lthumb 3.03014 49.6677
rfemur -7.89043 22.8583 16.7674
rtibia 28.3663
rfoot -15.706 -7.5718
rtoes -1.84838
lfemur -1.48975 -2.23046 -17.799
ltibia 26.8665
lfoot -18.9994 18.8992
ltoes -4.54285
2366
root 0.181757 18.5744 -1.27639 -5.2699 -5.71641 0.707753
lowerback 3.62256 -0.278285 -3.21926
upperback 0.727117 -0.498025 -0.297154
thorax -1.25936 -0.23824 1.52312
lowerneck -12.1003 -3.1701 -9.36589
upperneck 17.2305 -4.02784 7.97311
head 7.64308 -1.81821 3.7749
rclavicle 2.33572e-015 -2.62396e-014
rhumerus 19.8532 -6.00523 -68.2682
rradius 17.9576
rwrist 27.0489
rhand -35.8769 8.61626
rfingers 7.12502
rthumb -8.99104 -21.1721
lclavicle 2.33572e-015 -2.62396e-014
lhumerus 18.9008 -10.7173 68.7111
lradius 22.6639
lwrist -3.58579
lhand -24.0862 19.2528
lfingers 7.12502
lthumb 2.39414 49.2191
rfemur -7.88695 22.8401 16.9172
rtibia 28.2926
rfoot -15.6155 -7.61714
rtoes -2.01228
lfemur -1.50088 -2.27225 -17.6499
ltibia 26.8665
lfoot -19.0589 18.9321
ltoes -4.58962
2367
root 0.182215 18.5753 -1.27681 -5.26166 -5.77548 0.718914
lowerback 3.51082 -0.229789 -3.20907
upperback 0.602563 -0.431352 -0.306497
thorax -1.32822 -0.202506 1.50451
lowerneck -11.8591 -3.15422 -9.30775
upperneck 17.3134 -4.04296 7.96832
head 7.6269 -1.82767 3.76468
rclavicle -1.08586e-014 0
rhumerus 21.6102 -5.62568 -67.5761
rradius 18.4644
rwrist 26.8737
rhand -35.8479 9.14133
rfingers 7.12502
rthumb -8.96302 -20.6483
lclavicle -1.08586e-014 0
lhumerus 20.9128 -11.2804 67.2951
lradius 23.5266
lwrist -3.02474
lhand -24.82 19.0232
lfingers 7.12502
lthumb 1.68539 48.9963
rfemur -7.91003 22.783 16.8872
rtibia 28.2518
rfoot -15.5372 -7.52297
rtoes -2.04334
lfemur -1.4457 -2.29783 -17.6864
ltibia 26.7865
lfoot -19.0932 19.062
ltoes -4.77322
2368
root 0.183029 18.576 -1.27257 -5.34115 -5.84506 0.842651
lowerback 3.46444 -0.173215 -3.30594
upperback 0.503918 -0.360477 -0.347725
thorax -1.40676 -0.164394 1.51332
lowerneck -11.5614 -3.13025 -9.37785
upperneck 17.3209 -4.05449 8.1286
head 7.58128 -1.8301 3.8313
rclavicle -1.79776e-014 1.8487e-014
rhumerus 23.1916 -4.64936 -66.4342
rradius 19.2149
rwrist 25.8629
rhand -36.2153 8.89168
rfingers 7.12502
rthumb -9.31756 -20.8824
lclavicle -1.79776e-014 1.8487e-014
lhumerus 22.9353 -11.6795 65.7973
lradius 24.1967
lwrist -2.44864
lhand -25.4949 18.5966
lfingers 7.12502
lthumb 1.03356 48.5738
rfemur -7.83675 22.7431 16.7653
rtibia 28.2475
rfoot -15.5288 -7.39429
rtoes -1.92253
lfemur -1.26075 -2.3224 -17.8525
ltibia 26.6398
lfoot -19.1161 19.1708
ltoes -4.68583
2369
root 0.184647 18.5813 -1.26622 -5.38566 -5.69505 1.01423
lowerback 3.38953 -0.209208 -3.45596
upperback 0.441863 -0.413293 -0.411384
thorax -1.4253 -0.189093 1.53415
lowerneck -11.4498 -3.09805 -9.41899
upperneck 17.3715 -4.04776 8.297
head 7.5808 -1.81738 3.89721
rclavicle 1.68967e-015 -9.34288e-015
rhumerus 24.8903 -3.78178 -65.2832
rradius 20.002
rwrist 24.7165
rhand -36.7536 7.99898
rfingers 7.12502
rthumb -9.83694 -21.7512
lclavicle 1.68967e-015 -9.34288e-015
lhumerus 25.0575 -11.4737 64.4715
lradius 24.5466
lwrist -2.3967
lhand -26.0783 18.209
lfingers 7.12502
lthumb 0.470126 48.1882
rfemur -7.74882 22.6148 16.5705
rtibia 28.2599
rfoot -15.6067 -7.31125
rtoes -1.5224
lfemur -1.13235 -2.47039 -18.0728
ltibia 26.4614
lfoot -19.0366 19.2126
ltoes -4.82835
2370
root 0.185072 18.5856 -1.25992 -5.37934 -5.47093 1.15901
lowerback 3.21407 -0.268906 -3.58386
upperback 0.407203 -0.491561 -0.472312
thorax -1.35799 -0.228319 1.54558
lowerneck -11.3469 -3.06874 -9.3952
upperneck 17.4065 -4.03689 8.36768
head 7.57327 -1.80684 3.91939
rclavicle -6.4605e-015 -1.37161e-014
rhumerus 26.6644 -3.55397 -64.2625
rradius 20.5965
rwrist 24.2581
rhand -36.9103 8.03789
rfingers 7.12502
rthumb -9.98814 -21.7051
lclavicle -6.4605e-015 -1.37161e-014
lhumerus 27.1903 -10.8813 63.3315
lradius 24.6896
lwrist -2.7713
lhand -26.1192 17.7429
lfingers 7.12502
lthumb 0.430606 47.7222
rfemur -7.70905 22.4605 16.4012
rtibia 28.276
rfoot -15.6871 -7.30666
rtoes -1.41104
lfemur -1.062 -2.7128 -18.2649
ltibia 26.2719
lfoot -19.01 19.2281
ltoes -4.65539
2371
root 0.184171 18.5861 -1.25274 -5.35961 -5.43831 1.16965
lowerback 3.03895 -0.262975 -3.6022
upperback 0.372515 -0.477214 -0.464551
thorax -1.29604 -0.221651 1.5621
lowerneck -11.2098 -3.0729 -9.32541
upperneck 17.3904 -4.05157 8.28633
head 7.54184 -1.81951 3.87927
rclavicle 1.16413e-014 2.10712e-014
rhumerus 28.4439 -3.65894 -63.2894
rradius 21.0773
rwrist 24.2074
rhand -37.2088 8.26117
rfingers 7.12502
rthumb -10.2761 -21.4678
lclavicle 1.16413e-014 2.10712e-014
lhumerus 29.2683 -10.3065 62.1599
lradius 24.7959
lwrist -2.87615
lhand -25.9208 17.5241
lfingers 7.12502
lthumb 0.622223 47.503
rfemur -7.71482 22.4098 16.3863
rtibia 28.2774
rfoot -15.6984 -7.3168
rtoes -1.49514
lfemur -0.982898 -2.7928 -18.2872
ltibia 26.103
lfoot -18.9397 19.3024
ltoes -4.81345
